# Blender 4.2.0
# www.blender.org
mtllib cornStage1.mtl
o CornStage1
v 0.418679 0.013144 -0.622114
v 0.496059 0.013144 -0.488088
v 0.341299 0.013144 -0.488088
v 0.418678 0.302223 -0.552014
v 0.435350 0.302223 -0.523139
v 0.402007 0.302223 -0.523139
v -0.740459 0.044108 0.043219
v -0.738530 0.044108 -0.083421
v -0.629821 0.044108 -0.018431
v -0.712488 0.333924 -0.003567
v -0.711997 0.333924 -0.035805
v -0.684324 0.333924 -0.019261
v 0.497945 -0.043558 0.607175
v 0.526153 -0.043558 0.746047
v 0.391783 -0.043558 0.701039
v 0.479987 0.279147 0.660789
v 0.488700 0.279147 0.703687
v 0.447193 0.279147 0.689784
v 0.418679 0.013144 -0.622114
v 0.418679 0.013144 -0.622114
v 0.496059 0.013144 -0.488088
v 0.496059 0.013144 -0.488088
v 0.435350 0.302223 -0.523139
v 0.435350 0.302223 -0.523139
v 0.341299 0.013144 -0.488088
v 0.341299 0.013144 -0.488088
v 0.402007 0.302223 -0.523139
v 0.402007 0.302223 -0.523139
v 0.418678 0.302223 -0.552014
v 0.418678 0.302223 -0.552014
v -0.740459 0.044108 0.043219
v -0.740459 0.044108 0.043219
v -0.738530 0.044108 -0.083421
v -0.738530 0.044108 -0.083421
v -0.711997 0.333924 -0.035805
v -0.711997 0.333924 -0.035805
v -0.629821 0.044108 -0.018431
v -0.629821 0.044108 -0.018431
v -0.684324 0.333924 -0.019261
v -0.684324 0.333924 -0.019261
v -0.712488 0.333924 -0.003567
v -0.712488 0.333924 -0.003567
v 0.497945 -0.043558 0.607175
v 0.497945 -0.043558 0.607175
v 0.526153 -0.043558 0.746047
v 0.526153 -0.043558 0.746047
v 0.488700 0.279147 0.703687
v 0.488700 0.279147 0.703687
v 0.391783 -0.043558 0.701039
v 0.391783 -0.043558 0.701039
v 0.447193 0.279147 0.689784
v 0.447193 0.279147 0.689784
v 0.479987 0.279147 0.660789
v 0.479987 0.279147 0.660789
vn 0.8597 0.1204 -0.4964
vn -0.0000 0.1204 0.9927
vn -0.0000 1.0000 -0.0000
vn -0.9955 0.0936 -0.0152
vn 0.5109 0.0936 -0.8545
vn 0.9762 0.0873 -0.1983
vn -0.3164 0.0873 0.9446
vn -0.0000 -1.0000 -0.0000
vn -0.8597 0.1204 -0.4964
vn 0.4846 0.0936 0.8697
vn -0.6599 0.0873 -0.7463
vt 0.750000 0.490000
vt 0.957846 0.130000
vt 0.542154 0.130000
vt 0.333333 0.500000
vt -0.000000 0.622041
vt -0.000000 0.500000
vt 0.666667 0.622041
vt 0.666667 0.500000
vt 1.000000 0.500000
vt 1.000000 0.622041
vt 0.333333 0.622041
s 1
usemtl Stalk
f 19/1/8 21/2/8 25/3/8
f 26/4/9 29/5/9 20/6/9
f 23/7/2 3/4/2 22/8/2
f 1/9/1 24/7/1 2/8/1
f 31/1/8 33/2/8 37/3/8
f 38/4/10 41/5/10 32/6/10
f 35/7/5 9/4/5 34/8/5
f 42/10/4 8/8/4 7/9/4
f 43/1/8 45/2/8 49/3/8
f 50/4/11 53/5/11 44/6/11
f 47/7/7 15/4/7 46/8/7
f 54/10/6 14/8/6 13/9/6
f 12/11/3 11/7/3 10/10/3
f 18/11/3 17/7/3 16/10/3
f 6/11/3 5/7/3 4/10/3
f 26/4/9 27/11/9 29/5/9
f 23/7/2 28/11/2 3/4/2
f 1/9/1 30/10/1 24/7/1
f 38/4/10 39/11/10 41/5/10
f 35/7/5 40/11/5 9/4/5
f 42/10/4 36/7/4 8/8/4
f 50/4/11 51/11/11 53/5/11
f 47/7/7 52/11/7 15/4/7
f 54/10/6 48/7/6 14/8/6
