# Blender 4.2.0
# www.blender.org
mtllib testObj.mtl
o Cube
v -1.000000 -1.000000 1.000000
v -1.000000 1.000000 1.000000
v -1.000000 -1.000000 -1.000000
v -1.000000 1.000000 -1.000000
v 1.000000 -1.000000 1.000000
v 1.000000 1.000000 1.000000
v 1.000000 -1.000000 -1.000000
v 1.000000 1.000000 -1.000000
v -1.000000 -1.000000 -1.000000
v -1.000000 -1.000000 -1.000000
v -1.000000 -1.000000 1.000000
v -1.000000 -1.000000 1.000000
v -1.000000 1.000000 1.000000
v -1.000000 1.000000 1.000000
v -1.000000 1.000000 -1.000000
v -1.000000 1.000000 -1.000000
v 1.000000 -1.000000 -1.000000
v 1.000000 -1.000000 -1.000000
v 1.000000 1.000000 -1.000000
v 1.000000 1.000000 -1.000000
v 1.000000 -1.000000 1.000000
v 1.000000 -1.000000 1.000000
v 1.000000 1.000000 1.000000
v 1.000000 1.000000 1.000000
vn -0.0000 -1.0000 -0.0000
vn -0.0000 1.0000 -0.0000
vn -1.0000 -0.0000 -0.0000
vn -0.0000 -0.0000 -1.0000
vn -0.0000 -0.0000 1.0000
vn 1.0000 -0.0000 -0.0000
vt 0.625000 0.000000
vt 0.375000 0.250000
vt 0.375000 0.000000
vt 0.625000 0.250000
vt 0.375000 0.500000
vt 0.625000 0.500000
vt 0.375000 0.750000
vt 0.625000 0.750000
vt 0.375000 1.000000
vt 0.125000 0.750000
vt 0.125000 0.500000
vt 0.873131 0.167885
vt 0.158119 0.882896
vt 0.158119 0.167885
vt 0.625000 1.000000
vt 0.873131 0.882896
s 1
usemtl Material1
f 13/1/3 9/2/3 11/3/3
f 16/4/4 17/5/4 10/2/4
f 7/5/1 1/10/1 3/11/1
f 13/1/3 15/4/3 9/2/3
f 16/4/4 19/6/4 17/5/4
f 7/5/1 5/7/1 1/10/1
usemtl Material2
f 20/6/6 21/7/6 18/5/6
f 24/8/5 12/9/5 22/7/5
f 4/12/2 6/13/2 8/14/2
f 20/6/6 23/8/6 21/7/6
f 24/8/5 14/15/5 12/9/5
f 4/12/2 2/16/2 6/13/2
