# Blender 4.2.0
# www.blender.org
mtllib wheatStage1.mtl
o Cube.016
v 0.677112 0.059542 -0.631689
v 0.700035 0.345922 -0.635740
v 0.710418 0.059542 -0.679292
v 0.714469 0.345922 -0.656368
v 0.724714 0.059542 -0.598382
v 0.720664 0.345922 -0.621306
v 0.758021 0.059542 -0.645985
v 0.735097 0.345922 -0.641935
v 0.519829 0.059542 -0.246578
v 0.543113 0.325390 -0.266131
v 0.567624 0.059542 -0.279607
v 0.565059 0.325730 -0.284418
v 0.552858 0.059542 -0.198782
v 0.561004 0.326887 -0.244369
v 0.600654 0.059542 -0.231812
v 0.582949 0.327227 -0.262657
v 0.154245 0.059542 -0.519868
v 0.179075 0.333001 -0.525014
v 0.187552 0.059542 -0.567471
v 0.186854 0.332676 -0.540706
v 0.201848 0.059542 -0.486561
v 0.194691 0.333801 -0.517446
v 0.235155 0.059542 -0.534164
v 0.202471 0.333476 -0.533139
v 0.640186 0.059542 0.221419
v 0.632581 0.303941 0.209604
v 0.588886 0.059542 0.194148
v 0.604749 0.303051 0.197127
v 0.667456 0.059542 0.170119
v 0.644877 0.304653 0.181638
v 0.616157 0.059542 0.142849
v 0.617045 0.303763 0.169162
v -0.157387 0.059542 -0.653977
v -0.151978 0.319913 -0.699346
v -0.215259 0.059542 -0.648852
v -0.174782 0.319913 -0.697327
v -0.162512 0.059542 -0.711848
v -0.153997 0.319913 -0.722150
v -0.220383 0.059542 -0.706724
v -0.176801 0.319913 -0.720131
v 0.019620 0.059542 -0.134775
v 0.025742 0.305823 -0.147359
v 0.037563 0.059542 -0.190033
v 0.032459 0.305823 -0.168047
v 0.074878 0.059542 -0.116832
v 0.046430 0.305823 -0.140641
v 0.092820 0.059542 -0.172090
v 0.053148 0.305823 -0.161329
v 0.178928 0.059542 0.481093
v 0.182202 0.339625 0.478565
v 0.212235 0.059542 0.433490
v 0.196523 0.339625 0.458096
v 0.226531 0.059542 0.514400
v 0.202670 0.339625 0.492886
v 0.259838 0.059542 0.466797
v 0.216991 0.339625 0.472418
v -0.384392 0.059542 0.113885
v -0.421379 0.384965 0.116405
v -0.422751 0.059542 0.070250
v -0.434668 0.384510 0.095467
v -0.340758 0.059542 0.075526
v -0.401324 0.386942 0.103223
v -0.379116 0.059542 0.031891
v -0.414614 0.386488 0.082286
v -0.449057 0.059542 0.525381
v -0.454493 0.321786 0.498642
v -0.501472 0.059542 0.550441
v -0.474326 0.321786 0.508124
v -0.474118 0.059542 0.472966
v -0.463975 0.321786 0.478809
v -0.526533 0.059542 0.498026
v -0.483808 0.321786 0.488291
v -0.634526 0.059542 -0.538371
v -0.607304 0.398460 -0.530117
v -0.580824 0.048323 -0.560541
v -0.590177 0.398042 -0.538308
v -0.612356 0.059542 -0.484670
v -0.599047 0.398715 -0.512987
v -0.558654 0.059542 -0.506839
v -0.581919 0.398297 -0.521178
v -0.700791 0.059542 0.096085
v -0.755111 0.334379 0.128427
v -0.729017 0.059542 0.146865
v -0.767576 0.334997 0.146788
v -0.751571 0.059542 0.067859
v -0.773536 0.333481 0.116238
v -0.779797 0.059542 0.118639
v -0.786000 0.334099 0.134600
v -0.012309 0.059542 0.750814
v -0.037360 0.342031 0.753946
v -0.037503 0.059542 0.803165
v -0.052981 0.342810 0.780317
v -0.064660 0.059542 0.725620
v -0.063532 0.343038 0.738129
v -0.089854 0.059542 0.777971
v -0.079153 0.343817 0.764500
v 0.606929 0.059542 0.612463
v 0.612263 0.344805 0.633776
v 0.656755 0.059542 0.642341
v 0.635442 0.344805 0.647675
v 0.577051 0.059542 0.662290
v 0.598365 0.344805 0.656955
v 0.626878 0.059542 0.692167
v 0.621543 0.344805 0.670854
v -0.617511 0.059542 0.713175
v -0.631474 0.329939 0.733787
v -0.568820 0.059542 0.744869
v -0.604222 0.329939 0.751526
v -0.649205 0.059542 0.761866
v -0.649214 0.329939 0.761039
v -0.600514 0.059542 0.793560
v -0.621961 0.329939 0.778779
v 0.710418 0.059542 -0.679292
v 0.710418 0.059542 -0.679292
v 0.677112 0.059542 -0.631689
v 0.677112 0.059542 -0.631689
v 0.700035 0.345922 -0.635740
v 0.700035 0.345922 -0.635740
v 0.714469 0.345922 -0.656368
v 0.714469 0.345922 -0.656368
v 0.758021 0.059542 -0.645985
v 0.758021 0.059542 -0.645985
v 0.735097 0.345922 -0.641935
v 0.735097 0.345922 -0.641935
v 0.724714 0.059542 -0.598382
v 0.724714 0.059542 -0.598382
v 0.720664 0.345922 -0.621306
v 0.720664 0.345922 -0.621306
v 0.567624 0.059542 -0.279607
v 0.567624 0.059542 -0.279607
v 0.519829 0.059542 -0.246578
v 0.519829 0.059542 -0.246578
v 0.543113 0.325390 -0.266131
v 0.543113 0.325390 -0.266131
v 0.565059 0.325730 -0.284418
v 0.565059 0.325730 -0.284418
v 0.600654 0.059542 -0.231812
v 0.600654 0.059542 -0.231812
v 0.582949 0.327227 -0.262657
v 0.582949 0.327227 -0.262657
v 0.552858 0.059542 -0.198782
v 0.552858 0.059542 -0.198782
v 0.561004 0.326887 -0.244369
v 0.561004 0.326887 -0.244369
v 0.187552 0.059542 -0.567471
v 0.187552 0.059542 -0.567471
v 0.154245 0.059542 -0.519868
v 0.154245 0.059542 -0.519868
v 0.179075 0.333001 -0.525014
v 0.179075 0.333001 -0.525014
v 0.186854 0.332676 -0.540706
v 0.186854 0.332676 -0.540706
v 0.235155 0.059542 -0.534164
v 0.235155 0.059542 -0.534164
v 0.202471 0.333476 -0.533139
v 0.202471 0.333476 -0.533139
v 0.201848 0.059542 -0.486561
v 0.201848 0.059542 -0.486561
v 0.194691 0.333801 -0.517446
v 0.194691 0.333801 -0.517446
v 0.588886 0.059542 0.194148
v 0.588886 0.059542 0.194148
v 0.640186 0.059542 0.221419
v 0.640186 0.059542 0.221419
v 0.632581 0.303941 0.209604
v 0.632581 0.303941 0.209604
v 0.604749 0.303051 0.197127
v 0.604749 0.303051 0.197127
v 0.616157 0.059542 0.142849
v 0.616157 0.059542 0.142849
v 0.617045 0.303763 0.169162
v 0.617045 0.303763 0.169162
v 0.667456 0.059542 0.170119
v 0.667456 0.059542 0.170119
v 0.644877 0.304653 0.181638
v 0.644877 0.304653 0.181638
v -0.215259 0.059542 -0.648852
v -0.215259 0.059542 -0.648852
v -0.157387 0.059542 -0.653977
v -0.157387 0.059542 -0.653977
v -0.151978 0.319913 -0.699346
v -0.151978 0.319913 -0.699346
v -0.174782 0.319913 -0.697327
v -0.174782 0.319913 -0.697327
v -0.220383 0.059542 -0.706724
v -0.220383 0.059542 -0.706724
v -0.176801 0.319913 -0.720131
v -0.176801 0.319913 -0.720131
v -0.162512 0.059542 -0.711848
v -0.162512 0.059542 -0.711848
v -0.153997 0.319913 -0.722150
v -0.153997 0.319913 -0.722150
v 0.037563 0.059542 -0.190033
v 0.037563 0.059542 -0.190033
v 0.019620 0.059542 -0.134775
v 0.019620 0.059542 -0.134775
v 0.025742 0.305823 -0.147359
v 0.025742 0.305823 -0.147359
v 0.032459 0.305823 -0.168047
v 0.032459 0.305823 -0.168047
v 0.092820 0.059542 -0.172090
v 0.092820 0.059542 -0.172090
v 0.053148 0.305823 -0.161329
v 0.053148 0.305823 -0.161329
v 0.074878 0.059542 -0.116832
v 0.074878 0.059542 -0.116832
v 0.046430 0.305823 -0.140641
v 0.046430 0.305823 -0.140641
v 0.212235 0.059542 0.433490
v 0.212235 0.059542 0.433490
v 0.178928 0.059542 0.481093
v 0.178928 0.059542 0.481093
v 0.182202 0.339625 0.478565
v 0.182202 0.339625 0.478565
v 0.196523 0.339625 0.458096
v 0.196523 0.339625 0.458096
v 0.259838 0.059542 0.466797
v 0.259838 0.059542 0.466797
v 0.216991 0.339625 0.472418
v 0.216991 0.339625 0.472418
v 0.226531 0.059542 0.514400
v 0.226531 0.059542 0.514400
v 0.202670 0.339625 0.492886
v 0.202670 0.339625 0.492886
v -0.422751 0.059542 0.070250
v -0.422751 0.059542 0.070250
v -0.384392 0.059542 0.113885
v -0.384392 0.059542 0.113885
v -0.421379 0.384965 0.116405
v -0.421379 0.384965 0.116405
v -0.434668 0.384510 0.095467
v -0.434668 0.384510 0.095467
v -0.379116 0.059542 0.031891
v -0.379116 0.059542 0.031891
v -0.414614 0.386488 0.082286
v -0.414614 0.386488 0.082286
v -0.340758 0.059542 0.075526
v -0.340758 0.059542 0.075526
v -0.401324 0.386942 0.103223
v -0.401324 0.386942 0.103223
v -0.501472 0.059542 0.550441
v -0.501472 0.059542 0.550441
v -0.449057 0.059542 0.525381
v -0.449057 0.059542 0.525381
v -0.454493 0.321786 0.498642
v -0.454493 0.321786 0.498642
v -0.474326 0.321786 0.508124
v -0.474326 0.321786 0.508124
v -0.526533 0.059542 0.498026
v -0.526533 0.059542 0.498026
v -0.483808 0.321786 0.488291
v -0.483808 0.321786 0.488291
v -0.474118 0.059542 0.472966
v -0.474118 0.059542 0.472966
v -0.463975 0.321786 0.478809
v -0.463975 0.321786 0.478809
v -0.580824 0.048323 -0.560541
v -0.580824 0.048323 -0.560541
v -0.634526 0.059542 -0.538371
v -0.634526 0.059542 -0.538371
v -0.607304 0.398460 -0.530117
v -0.607304 0.398460 -0.530117
v -0.590177 0.398042 -0.538308
v -0.590177 0.398042 -0.538308
v -0.558654 0.059542 -0.506839
v -0.558654 0.059542 -0.506839
v -0.581919 0.398297 -0.521178
v -0.581919 0.398297 -0.521178
v -0.612356 0.059542 -0.484670
v -0.612356 0.059542 -0.484670
v -0.599047 0.398715 -0.512987
v -0.599047 0.398715 -0.512987
v -0.729017 0.059542 0.146865
v -0.729017 0.059542 0.146865
v -0.700791 0.059542 0.096085
v -0.700791 0.059542 0.096085
v -0.755111 0.334379 0.128427
v -0.755111 0.334379 0.128427
v -0.767576 0.334997 0.146788
v -0.767576 0.334997 0.146788
v -0.779797 0.059542 0.118639
v -0.779797 0.059542 0.118639
v -0.786000 0.334099 0.134600
v -0.786000 0.334099 0.134600
v -0.751571 0.059542 0.067859
v -0.751571 0.059542 0.067859
v -0.773536 0.333481 0.116238
v -0.773536 0.333481 0.116238
v -0.037503 0.059542 0.803165
v -0.037503 0.059542 0.803165
v -0.012309 0.059542 0.750814
v -0.012309 0.059542 0.750814
v -0.037360 0.342031 0.753946
v -0.037360 0.342031 0.753946
v -0.052981 0.342810 0.780317
v -0.052981 0.342810 0.780317
v -0.089854 0.059542 0.777971
v -0.089854 0.059542 0.777971
v -0.079153 0.343817 0.764500
v -0.079153 0.343817 0.764500
v -0.064660 0.059542 0.725620
v -0.064660 0.059542 0.725620
v -0.063532 0.343038 0.738129
v -0.063532 0.343038 0.738129
v 0.656755 0.059542 0.642341
v 0.656755 0.059542 0.642341
v 0.606929 0.059542 0.612463
v 0.606929 0.059542 0.612463
v 0.612263 0.344805 0.633776
v 0.612263 0.344805 0.633776
v 0.635442 0.344805 0.647675
v 0.635442 0.344805 0.647675
v 0.626878 0.059542 0.692167
v 0.626878 0.059542 0.692167
v 0.621543 0.344805 0.670854
v 0.621543 0.344805 0.670854
v 0.577051 0.059542 0.662290
v 0.577051 0.059542 0.662290
v 0.598365 0.344805 0.656955
v 0.598365 0.344805 0.656955
v -0.568820 0.059542 0.744869
v -0.568820 0.059542 0.744869
v -0.617511 0.059542 0.713175
v -0.617511 0.059542 0.713175
v -0.631474 0.329939 0.733787
v -0.631474 0.329939 0.733787
v -0.604222 0.329939 0.751526
v -0.604222 0.329939 0.751526
v -0.600514 0.059542 0.793560
v -0.600514 0.059542 0.793560
v -0.621961 0.329939 0.778779
v -0.621961 0.329939 0.778779
v -0.649205 0.059542 0.761866
v -0.649205 0.059542 0.761866
v -0.649214 0.329939 0.761039
v -0.649214 0.329939 0.761039
vn -0.5723 0.0574 0.8180
vn -0.0000 -1.0000 -0.0000
vn -0.0000 1.0000 -0.0000
vn -0.0431 0.9985 -0.0332
vn -0.5720 0.0673 0.8175
vn -0.4553 0.0867 0.8861
vn -0.0332 0.9988 -0.0371
vn -0.5666 0.0683 0.8211
vn -0.4380 0.0893 0.8945
vn -0.0362 0.9993 0.0095
vn -0.3084 0.0562 0.9496
vn -0.5732 0.0141 0.8193
vn -0.0794 0.9964 0.0287
vn 0.9019 -0.0253 -0.4312
vn -0.9224 0.0648 0.3808
vn -0.9015 0.0707 0.4270
vn -0.1011 -0.9647 0.2433
vn 0.0141 0.9997 -0.0216
vn -0.9216 0.0651 0.3827
vn -0.8989 0.0714 0.4323
vn -0.0516 -0.9909 0.1241
vn 0.0140 0.9997 -0.0216
vn -0.0183 0.9988 -0.0460
vn 0.4331 0.0484 -0.9000
vn 0.5078 0.0372 -0.8607
vn 0.0414 0.9991 -0.0050
vn 0.4392 0.0475 -0.8972
vn 0.5179 0.0357 -0.8547
vn -0.8180 0.0574 -0.5723
vn 0.5723 0.0574 -0.8180
vn 0.8180 0.0574 0.5723
vn -0.5735 -0.0114 -0.8191
vn 0.8195 -0.0106 -0.5730
vn -0.5685 -0.0107 -0.8226
vn -0.8138 0.1206 0.5685
vn -0.6310 -0.0189 -0.7756
vn -0.7713 0.1136 0.6263
vn -0.6399 -0.0201 -0.7682
vn 0.7726 -0.0040 -0.6349
vn 0.8226 -0.0111 -0.5685
vn 0.5690 0.1226 0.8131
vn 0.7795 -0.0050 -0.6264
vn 0.6336 0.1298 0.7627
vn 0.5643 0.1220 0.8165
vn -0.8166 0.1211 0.5643
vn 0.6252 0.1289 0.7698
vn -0.7775 0.1146 0.6183
vn -0.8182 0.0540 -0.5725
vn 0.5663 0.0721 -0.8210
vn -0.8217 0.0548 -0.5673
vn -0.8930 0.0727 -0.4442
vn -0.8846 0.0705 -0.4609
vn 0.4306 0.0891 -0.8981
vn 0.5718 0.0713 -0.8173
vn 0.8199 0.0865 0.5659
vn 0.4495 0.0869 -0.8890
vn 0.8919 0.1048 0.4400
vn 0.8163 0.0856 0.5712
vn 0.8834 0.1025 0.4574
vn -0.4693 0.0198 0.8828
vn -0.8845 0.0546 -0.4634
vn -0.4645 0.0207 0.8853
vn 0.8842 0.0583 0.4634
vn -0.4097 0.0313 0.9117
vn 0.9139 0.0479 0.4031
vn -0.4183 0.0297 0.9078
vn -0.9141 0.0644 -0.4003
vn -0.8817 0.0537 -0.4687
vn 0.4674 0.0930 -0.8792
vn -0.9098 0.0629 -0.4103
vn 0.4145 0.0820 -0.9063
vn 0.4624 0.0920 -0.8819
vn 0.8814 0.0592 0.4686
vn 0.4056 0.0802 -0.9105
vn 0.9095 0.0496 0.4127
vn 0.0869 0.1693 0.9817
vn -0.9818 0.1688 0.0869
vn 0.9955 -0.0360 -0.0881
vn -0.0881 -0.0365 -0.9954
vn -0.9511 0.0079 -0.3088
vn 0.3076 0.0909 -0.9472
vn 0.9420 0.1384 0.3059
vn -0.8193 0.0044 -0.5733
vn 0.5702 0.1036 -0.8149
vn 0.8141 0.1131 0.5696
vn -0.7530 -0.0893 0.6519
vn -0.6550 0.0441 -0.7543
vn -0.7480 -0.0901 0.6575
vn 0.6543 0.0584 0.7540
vn -0.8321 -0.0745 0.5497
vn 0.5446 0.0554 0.8369
vn -0.8414 -0.0724 0.5356
vn -0.5518 0.0444 -0.8328
vn -0.6596 0.0440 -0.7503
vn 0.7387 0.1803 -0.6494
vn -0.5636 0.0444 -0.8248
vn 0.8175 0.1959 -0.5416
vn 0.7434 0.1812 -0.6438
vn 0.6591 0.0585 0.7498
vn 0.8257 0.1975 -0.5284
vn 0.5570 0.0558 0.8286
vn 0.4292 0.1004 0.8976
vn -0.8904 0.1609 0.4257
vn -0.4311 0.0368 -0.9016
vn -0.3724 0.0490 -0.9268
vn 0.9195 0.0494 -0.3899
vn -0.3743 0.0492 -0.9260
vn -0.4296 0.0565 -0.9012
vn -0.4238 0.0557 -0.9040
vn 0.9019 0.0440 -0.4298
vn 0.9189 0.0492 -0.3914
vn 0.3827 0.0623 0.9218
vn 0.8997 0.0434 -0.4343
vn 0.4318 0.0677 0.8994
vn 0.3809 0.0621 0.9225
vn 0.4265 0.0671 0.9020
vn 0.8662 0.1149 0.4862
vn -0.4847 -0.0676 0.8721
vn 0.8683 0.1148 0.4826
vn 0.4765 0.1951 -0.8573
vn 0.8291 0.1154 0.5471
vn 0.5281 0.1892 -0.8278
vn 0.8236 0.1155 0.5552
vn -0.5407 -0.0617 0.8390
vn -0.4880 -0.0673 0.8702
vn -0.8718 0.0156 -0.4896
vn -0.5487 -0.0609 0.8338
vn -0.8271 0.0140 -0.5619
vn -0.8739 0.0157 -0.4858
vn 0.4795 0.1947 -0.8556
vn -0.8329 0.0142 -0.5532
vn 0.5355 0.1883 -0.8233
vn 0.8959 0.0758 0.4377
vn -0.4331 0.0489 0.9000
vn 0.8986 0.0749 0.4324
vn 0.8635 0.0861 0.4969
vn 0.8582 0.0877 0.5058
vn -0.5050 0.0586 0.8611
vn -0.4389 0.0497 0.8972
vn -0.8982 0.0217 -0.4390
vn -0.5146 0.0599 0.8553
vn -0.8602 0.0082 -0.5098
vn -0.9009 0.0227 -0.4335
vn -0.8657 0.0100 -0.5005
vn 0.5135 0.0544 -0.8564
vn 0.8564 0.0544 0.5135
vn -0.8564 0.0544 -0.5135
vn -0.5135 0.0544 0.8564
vn 0.5432 0.0917 -0.8346
vn 0.8342 0.0959 0.5430
vn -0.8381 -0.0017 -0.5455
vn -0.5455 0.0025 0.8381
vt 0.625000 0.750000
vt 0.375000 1.000000
vt 0.375000 0.750000
vt 0.625000 0.000000
vt 0.375000 0.250000
vt 0.375000 0.000000
vt 0.625000 0.250000
vt 0.375000 0.500000
vt 0.125000 0.750000
vt 0.125000 0.500000
vt 0.625000 1.000000
vt 0.625000 0.500000
s 1
usemtl WheatMedium
f 144/1/47 132/2/35 142/3/45
f 117/4/29 113/5/29 115/6/29
f 120/7/30 121/8/30 114/5/30
f 122/8/31 127/1/31 125/3/31
f 7/8/2 116/9/2 3/10/2
f 118/11/3 8/12/3 4/7/3
f 176/1/75 164/2/63 174/3/73
f 133/4/36 129/5/32 131/6/34
f 130/5/33 139/12/42 137/8/40
f 138/8/41 143/1/46 141/3/44
f 11/10/2 13/3/2 9/9/2
f 10/11/4 16/12/4 12/7/4
f 6/1/1 1/2/1 5/3/1
f 147/6/50 151/7/52 145/5/48
f 146/5/49 155/12/56 153/8/54
f 154/8/55 159/1/59 157/3/58
f 19/10/2 158/3/2 148/9/2
f 160/1/7 20/7/7 150/11/7
f 163/6/62 167/7/66 161/5/60
f 162/5/61 171/12/70 169/8/68
f 172/12/71 173/3/72 170/8/69
f 27/10/2 29/3/2 25/9/2
f 179/6/76 183/7/76 177/5/76
f 184/7/77 185/8/77 178/5/77
f 188/12/79 189/3/79 186/8/79
f 190/3/78 182/11/78 180/2/78
f 39/8/2 33/9/2 35/10/2
f 34/11/3 40/12/3 36/7/3
f 21/3/8 18/11/6 17/2/5
f 195/6/80 199/7/80 193/5/80
f 194/5/81 203/12/81 201/8/81
f 204/12/82 205/3/82 202/8/82
f 43/10/2 206/3/2 196/9/2
f 208/1/3 44/7/3 198/11/3
f 240/1/101 228/2/89 238/3/99
f 211/6/83 215/7/83 209/5/83
f 210/5/84 219/12/84 217/8/84
f 220/12/85 221/3/85 218/8/85
f 55/8/2 212/9/2 51/10/2
f 224/1/3 52/7/3 214/11/3
f 229/4/90 225/5/86 227/6/88
f 226/5/87 235/12/96 233/8/94
f 236/12/97 237/3/98 234/8/95
f 63/8/2 57/9/2 59/10/2
f 62/1/13 60/7/13 58/11/13
f 334/3/151 326/11/151 324/2/151
f 243/6/102 247/7/102 241/5/102
f 248/7/103 249/8/103 242/5/103
f 252/12/104 253/3/104 250/8/104
f 67/10/2 254/3/2 244/9/2
f 256/1/3 68/7/3 246/11/3
f 286/3/130 278/11/122 276/2/120
f 259/6/107 263/7/109 257/5/105
f 264/7/110 265/8/111 258/5/106
f 266/8/112 271/1/116 269/3/115
f 79/8/21 260/9/21 75/10/17
f 272/1/18 76/7/18 262/11/18
f 69/3/14 66/11/14 65/2/14
f 277/4/121 273/5/117 275/6/119
f 280/7/124 281/8/125 274/5/118
f 282/8/126 287/1/131 285/3/129
f 87/8/2 81/9/2 83/10/2
f 86/1/23 84/7/23 82/11/23
f 320/1/147 308/2/147 318/3/147
f 293/4/136 289/5/133 291/6/135
f 296/7/138 297/8/139 290/5/134
f 298/8/140 303/1/144 301/3/143
f 91/10/2 302/3/2 292/9/2
f 294/11/26 96/12/26 92/7/26
f 54/1/12 49/2/12 53/3/12
f 309/4/145 305/5/145 307/6/145
f 306/5/146 315/12/146 313/8/146
f 316/12/148 317/3/148 314/8/148
f 103/8/2 97/9/2 99/10/2
f 102/1/3 100/7/3 98/11/3
f 93/3/27 90/11/25 89/2/24
f 323/6/149 327/7/149 321/5/149
f 328/7/150 329/8/150 322/5/150
f 332/12/152 333/3/152 330/8/152
f 111/8/2 105/9/2 107/10/2
f 106/11/3 112/12/3 108/7/3
f 30/1/10 28/7/10 26/11/10
f 77/3/19 74/11/16 73/2/15
f 46/1/11 41/2/11 45/3/11
f 144/1/47 134/11/37 132/2/35
f 117/4/29 119/7/29 113/5/29
f 120/7/30 123/12/30 121/8/30
f 122/8/31 124/12/31 127/1/31
f 7/8/2 126/3/2 116/9/2
f 118/11/3 128/1/3 8/12/3
f 176/1/75 166/11/65 164/2/63
f 133/4/36 135/7/38 129/5/32
f 130/5/33 136/7/39 139/12/42
f 138/8/41 140/12/43 143/1/46
f 11/10/2 15/8/2 13/3/2
f 10/11/4 14/1/4 16/12/4
f 6/1/1 2/11/1 1/2/1
f 147/6/50 149/4/51 151/7/52
f 146/5/49 152/7/53 155/12/56
f 154/8/55 156/12/57 159/1/59
f 19/10/2 23/8/2 158/3/2
f 160/1/7 24/12/7 20/7/7
f 163/6/62 165/4/64 167/7/66
f 162/5/61 168/7/67 171/12/70
f 172/12/71 175/1/74 173/3/72
f 27/10/2 31/8/2 29/3/2
f 179/6/76 181/4/76 183/7/76
f 184/7/77 187/12/77 185/8/77
f 188/12/79 191/1/79 189/3/79
f 190/3/78 192/1/78 182/11/78
f 39/8/2 37/3/2 33/9/2
f 34/11/3 38/1/3 40/12/3
f 21/3/8 22/1/9 18/11/6
f 195/6/80 197/4/80 199/7/80
f 194/5/81 200/7/81 203/12/81
f 204/12/82 207/1/82 205/3/82
f 43/10/2 47/8/2 206/3/2
f 208/1/3 48/12/3 44/7/3
f 240/1/101 230/11/91 228/2/89
f 211/6/83 213/4/83 215/7/83
f 210/5/84 216/7/84 219/12/84
f 220/12/85 223/1/85 221/3/85
f 55/8/2 222/3/2 212/9/2
f 224/1/3 56/12/3 52/7/3
f 229/4/90 231/7/92 225/5/86
f 226/5/87 232/7/93 235/12/96
f 236/12/97 239/1/100 237/3/98
f 63/8/2 61/3/2 57/9/2
f 62/1/13 64/12/13 60/7/13
f 334/3/151 336/1/151 326/11/151
f 243/6/102 245/4/102 247/7/102
f 248/7/103 251/12/103 249/8/103
f 252/12/104 255/1/104 253/3/104
f 67/10/2 71/8/2 254/3/2
f 256/1/3 72/12/3 68/7/3
f 286/3/130 288/1/132 278/11/122
f 259/6/107 261/4/108 263/7/109
f 264/7/110 267/12/113 265/8/111
f 266/8/112 268/12/114 271/1/116
f 79/8/21 270/3/2 260/9/21
f 272/1/18 80/12/22 76/7/18
f 69/3/14 70/1/14 66/11/14
f 277/4/121 279/7/123 273/5/117
f 280/7/124 283/12/127 281/8/125
f 282/8/126 284/12/128 287/1/131
f 87/8/2 85/3/2 81/9/2
f 86/1/23 88/12/23 84/7/23
f 320/1/147 310/11/147 308/2/147
f 293/4/136 295/7/137 289/5/133
f 296/7/138 299/12/141 297/8/139
f 298/8/140 300/12/142 303/1/144
f 91/10/2 95/8/2 302/3/2
f 294/11/26 304/1/26 96/12/26
f 54/1/12 50/11/12 49/2/12
f 309/4/145 311/7/145 305/5/145
f 306/5/146 312/7/146 315/12/146
f 316/12/148 319/1/148 317/3/148
f 103/8/2 101/3/2 97/9/2
f 102/1/3 104/12/3 100/7/3
f 93/3/27 94/1/28 90/11/25
f 323/6/149 325/4/149 327/7/149
f 328/7/150 331/12/150 329/8/150
f 332/12/152 335/1/152 333/3/152
f 111/8/2 109/3/2 105/9/2
f 106/11/3 110/1/3 112/12/3
f 30/1/10 32/12/10 28/7/10
f 77/3/19 78/1/20 74/11/16
f 46/1/11 42/11/11 41/2/11
